# xmcd CD database file
#
# Track frame offsets:
#	173
#	22558
#	41253
#	60088
#	77393
#	91425
#	109485
#	125038
#	137033
#	152533
#	166025
#
# Disc length: 2455 seconds
#
# Revision: 0
# Processed by: cddbd v1.4PL0 Copyright (c) Steve Scherf et al.
# Submitted via: CDex 1.50beta10
#
DISCID=7309950b
DTITLE=Секрет - Blues de Moscou
DYEAR=1996
DGENRE=Blues
TTITLE0=Ничего не бойся
TTITLE1=Странные дни
TTITLE2=Сидя на крыше
TTITLE3=Давай, Заводи
TTITLE4=Возьми меня
TTITLE5=Между небом и землей
TTITLE6=Ты вернешься ко мне
TTITLE7=Береги свой хой
TTITLE8=Дай мне шанс
TTITLE9=Blues de Moscou
TTITLE10=Ты умеешь летать
EXTD=YEAR: 1996
EXTT0=
EXTT1=
EXTT2=
EXTT3=
EXTT4=
EXTT5=
EXTT6=
EXTT7=
EXTT8=
EXTT9=
EXTT10=
PLAYORDER=
